<?xml version="1.0" encoding="UTF-8" standalone="no"?>
<!-- Generator: Adobe Illustrator 16.0.0, SVG Export Plug-In . SVG Version: 6.00 Build 0)  -->

<svg
   xmlns:dc="http://purl.org/dc/elements/1.1/"
   xmlns:cc="http://creativecommons.org/ns#"
   xmlns:rdf="http://www.w3.org/1999/02/22-rdf-syntax-ns#"
   xmlns:svg="http://www.w3.org/2000/svg"
   xmlns="http://www.w3.org/2000/svg"
   xmlns:sodipodi="http://sodipodi.sourceforge.net/DTD/sodipodi-0.dtd"
   xmlns:inkscape="http://www.inkscape.org/namespaces/inkscape"
   version="1.1"
   id="Signature"
   x="0px"
   y="0px"
   width="562.472px"
   height="199.49px"
   viewBox="0 0 562.472 199.49"
   enable-background="new 0 0 562.472 199.49"
   xml:space="preserve"
   sodipodi:docname="piv-queb.cac.svg"
   inkscape:version="0.92.4 (5da689c313, 2019-01-14)"><metadata
   id="metadata138"><rdf:RDF><cc:Work
       rdf:about=""><dc:format>image/svg+xml</dc:format><dc:type
         rdf:resource="http://purl.org/dc/dcmitype/StillImage" /></cc:Work></rdf:RDF></metadata><defs
   id="defs136" /><sodipodi:namedview
   pagecolor="#ffffff"
   bordercolor="#666666"
   borderopacity="1"
   objecttolerance="10"
   gridtolerance="10"
   guidetolerance="10"
   inkscape:pageopacity="0"
   inkscape:pageshadow="2"
   inkscape:window-width="1920"
   inkscape:window-height="1017"
   id="namedview134"
   showgrid="false"
   inkscape:zoom="3.1130439"
   inkscape:cx="281.23599"
   inkscape:cy="99.745003"
   inkscape:window-x="1912"
   inkscape:window-y="-8"
   inkscape:window-maximized="1"
   inkscape:current-layer="Signature" />
<g
   id="g129"
   transform="translate(0,46)">
	<g
   id="g91">
		<g
   id="g89">
			<path
   d="m 171.655,125.93 -0.001,-38.784 h -0.295 c -1.376,1.269 -6.474,1.371 -8.635,1.371 h -3.748 v 0.315 c 4.329,2.659 3.74,6.589 3.74,11.473 l 0.004,16.417 c 0,8.202 -8.06,13.962 -14.558,13.962 -8.559,0 -12.112,-6.077 -12.112,-15.885 V 87.147 h -0.294 c -1.377,1.268 -6.506,1.371 -8.667,1.371 h -3.716 v 0.315 c 4.33,2.658 3.741,6.588 3.741,11.473 v 16.356 c 0,14.976 6.495,22.089 18.099,22.089 6.891,0 13.964,-2.443 17.509,-8.282 v 7.075 h 12.676 v -0.318 c -4.33,-2.451 -3.743,-6.396 -3.743,-11.296 z"
   id="path75"
   inkscape:connector-curvature="0" />
			<path
   d="m 191.312,105.191 c 1.184,-6.662 6.104,-10.891 12.702,-10.891 7.087,0 11.615,3.489 12.696,10.891 z m 35.737,6.182 c 0.391,-13.688 -8.765,-24.017 -22.15,-24.017 -14.668,0 -24.604,10.644 -24.604,25.406 0,14.873 11.509,26.2 28.246,26.2 4.627,0 9.351,-0.733 13.586,-2.631 l 4.922,-9.984 h -0.298 c -4.529,3.852 -10.235,5.674 -16.144,5.674 -11.122,0 -19.489,-7.597 -19.687,-20.648 z"
   id="path77"
   inkscape:connector-curvature="0" />
			<path
   d="m 234.858,64.617 c 2.356,0 7.167,-0.146 8.621,-1.58 h 0.293 v 67.167 c 2.642,0.743 5.381,1.269 8.119,1.269 10.756,0 16.918,-7.521 16.918,-18.008 0,-10.28 -4.791,-18.225 -14.667,-18.225 -3.129,0 -5.575,0.847 -8.217,2.331 l 5.283,-9.043 c 2.247,-0.85 4.595,-1.172 6.943,-1.172 11.154,0 20.637,9.684 20.637,24.2 0,16.634 -11.25,27.388 -29.049,27.388 -6.65,0 -13.036,-1.173 -17.854,-1.919 v -0.323 c 3.248,-1.491 2.954,-5.015 2.954,-8.512 V 79.364 c 0,-4.903 0.589,-11.765 -3.64,-14.43 v -0.316 h 3.659 z"
   id="path79"
   inkscape:connector-curvature="0" />
			<path
   d="m 296.261,105.191 c 1.186,-6.662 6.103,-10.891 12.702,-10.891 7.086,0 11.614,3.489 12.697,10.891 z m 35.732,6.182 c 0.398,-13.688 -8.758,-24.017 -22.146,-24.017 -14.667,0 -24.605,10.644 -24.605,25.406 0,14.873 11.515,26.2 28.247,26.2 4.629,0 9.356,-0.733 13.584,-2.631 l 4.921,-9.984 h -0.291 c -4.529,3.852 -10.241,5.674 -16.146,5.674 -11.124,0 -19.49,-7.597 -19.688,-20.648 z"
   id="path81"
   inkscape:connector-curvature="0" />
			<path
   d="m 376.021,99.524 h -0.292 c -2.856,-3.519 -7.584,-5.224 -12.014,-5.224 -9.549,0 -16.435,7.249 -16.435,17.37 0,12.252 9.546,20.352 20.472,20.352 5.02,0 10.533,-2.133 14.373,-5.223 h 0.296 l -5.12,10.059 c -4.135,1.686 -8.661,2.105 -12.997,2.105 -15.154,0 -27.003,-10.671 -27.003,-24.521 0,-18.328 13.228,-27.085 28.088,-27.085 3.546,0 7.188,0.419 10.632,1.262 z"
   id="path83"
   inkscape:connector-curvature="0" />
			<path
   d="m 214.766,78.566 c 0,-4.953 0,-10.659 0,-10.659 -6.452,2.893 -12.439,8.299 -16.442,13.561 v 4.152 c 9.577,-6.453 16.442,-6.754 16.442,-7.054 z"
   id="path85"
   inkscape:connector-curvature="0"
   style="clip-rule:evenodd;fill-rule:evenodd" />
			<path
   d="m 82.861,131.635 c -14.864,0 -25.203,-16.77 -25.203,-31.016 0,-0.146 0,-1.462 0.002,-1.603 0.185,-13.802 9.12,-26.748 24.71,-26.748 16.405,0 24.867,15.52 25.004,30.227 0,0.118 0,1.413 0,1.532 0.001,15.67 -9.745,27.608 -24.513,27.608 z m 50.952,16.301 c -10.977,1.796 -21.526,-1.662 -32.739,-14.49 10.83,-5.437 17.528,-18.973 17.528,-31.549 0,-0.131 -0.002,-1.436 -0.002,-1.565 -0.195,-21.523 -16.363,-35.735 -35.639,-35.735 -19.312,0 -36.38,14.791 -36.524,36.486 0,0.097 -0.003,1.36 -0.003,1.453 0,21.104 15.657,36.773 34.854,36.773 2.758,0 5.414,-0.428 8.072,-1.066 12.574,11.777 23.78,16.792 33.464,15.627 4.594,-0.554 9.446,-2.379 12.361,-6.164 z"
   id="path87"
   inkscape:connector-curvature="0" />
		</g>
	</g>
	<g
   id="g109">
		<g
   id="g97">
			<g
   id="g95">
				<rect
   x="400.02301"
   y="64.630997"
   width="48.015999"
   height="29.429001"
   id="rect93"
   style="clip-rule:evenodd;fill:#226cb4;fill-rule:evenodd" />
			</g>
		</g>
		<path
   d="m 424.032,66.172 c -0.349,0.644 -1.134,1.569 -2.451,3.231 -1.534,1.908 -1.268,4.461 -0.539,5.967 0.833,1.742 1.312,3.183 1.692,4.555 0.526,1.994 0.179,4.654 0.214,4.412 h -1.327 c 0,-3.248 -1.017,-6.303 -3.463,-7.66 -3.482,-1.928 -6.918,1.415 -5.827,4.889 0.579,1.825 1.604,2.436 1.894,2.436 0,0 -0.479,-2.01 0.972,-3.031 1.367,-0.967 3.053,-0.384 3.836,0.771 0.739,1.092 0.855,2.595 0.855,2.595 h -2.499 v 1.851 l 5.03,-0.005 c 0,0 -0.137,2.617 -2.889,2.362 0,0 0.341,2.055 2.889,0.982 0,0 -0.137,2.152 1.613,3.235 v 0 0 c 1.747,-1.083 1.619,-3.235 1.619,-3.235 2.553,1.073 2.888,-0.982 2.888,-0.982 -2.76,0.255 -2.888,-2.362 -2.888,-2.362 l 5.031,0.005 v -1.851 h -2.506 c 0,0 0.121,-1.502 0.858,-2.595 0.781,-1.155 2.472,-1.738 3.832,-0.771 1.452,1.021 0.979,3.031 0.979,3.031 0.292,0 1.312,-0.611 1.894,-2.436 1.092,-3.475 -2.35,-6.817 -5.823,-4.889 -2.457,1.356 -3.46,4.412 -3.46,7.66 h -1.336 c 0.034,0.243 -0.316,-2.418 0.217,-4.412 0.374,-1.372 0.858,-2.812 1.691,-4.555 0.729,-1.506 0.999,-4.059 -0.537,-5.967 -1.312,-1.662 -2.105,-2.587 -2.459,-3.231 z"
   id="path99"
   inkscape:connector-curvature="0"
   style="clip-rule:evenodd;fill:#ffffff;fill-rule:evenodd" />
		<g
   id="g105">
			<g
   id="g103">
				<rect
   x="462.03299"
   y="64.630997"
   width="48.029999"
   height="29.429001"
   id="rect101"
   style="clip-rule:evenodd;fill:#226cb4;fill-rule:evenodd" />
			</g>
		</g>
		<path
   d="m 486.045,66.172 c -0.357,0.644 -1.142,1.569 -2.47,3.231 -1.535,1.908 -1.261,4.461 -0.529,5.967 0.836,1.742 1.313,3.183 1.694,4.555 0.522,1.994 0.18,4.654 0.217,4.412 h -1.336 c 0,-3.248 -1.009,-6.303 -3.464,-7.66 -3.479,-1.928 -6.91,1.415 -5.818,4.889 0.571,1.825 1.595,2.436 1.888,2.436 0,0 -0.475,-2.01 0.979,-3.031 1.356,-0.967 3.047,-0.384 3.826,0.771 0.745,1.092 0.862,2.595 0.862,2.595 h -2.499 v 1.851 l 5.022,-0.005 c 0,0 -0.135,2.617 -2.885,2.362 0,0 0.337,2.055 2.885,0.982 0,0 -0.135,2.152 1.628,3.235 v 0 0 c 1.738,-1.083 1.604,-3.235 1.604,-3.235 2.554,1.073 2.897,-0.982 2.897,-0.982 -2.764,0.255 -2.897,-2.362 -2.897,-2.362 l 5.038,0.005 v -1.851 h -2.517 c 0,0 0.131,-1.502 0.863,-2.595 0.787,-1.155 2.475,-1.738 3.843,-0.771 1.44,1.021 0.985,3.031 0.985,3.031 0.279,0 1.299,-0.611 1.865,-2.436 1.093,-3.475 -2.345,-6.817 -5.817,-4.889 -2.445,1.356 -3.456,4.412 -3.456,7.66 h -1.326 c 0.035,0.243 -0.32,-2.418 0.215,-4.412 0.364,-1.372 0.855,-2.812 1.687,-4.555 0.724,-1.506 0.992,-4.059 -0.538,-5.967 -1.312,-1.662 -2.111,-2.587 -2.446,-3.231 z"
   id="path107"
   inkscape:connector-curvature="0"
   style="clip-rule:evenodd;fill:#ffffff;fill-rule:evenodd" />
	</g>
	<g
   id="g127">
		<g
   id="g115">
			<g
   id="g113">
				<rect
   x="400.02301"
   y="108.079"
   width="48.015999"
   height="29.423"
   id="rect111"
   style="clip-rule:evenodd;fill:#226cb4;fill-rule:evenodd" />
			</g>
		</g>
		<path
   d="m 424.032,109.615 c -0.349,0.646 -1.134,1.572 -2.451,3.229 -1.534,1.906 -1.268,4.458 -0.539,5.966 0.833,1.741 1.312,3.181 1.692,4.563 0.526,1.982 0.179,4.646 0.214,4.402 h -1.327 c 0,-3.24 -1.017,-6.303 -3.463,-7.66 -3.482,-1.934 -6.918,1.419 -5.827,4.889 0.579,1.82 1.604,2.44 1.894,2.44 0,0 -0.479,-2.005 0.972,-3.034 1.367,-0.96 3.053,-0.377 3.836,0.761 0.739,1.103 0.855,2.604 0.855,2.604 h -2.499 v 1.85 h 5.03 c 0,0 -0.137,2.607 -2.889,2.361 0,0 0.341,2.055 2.889,0.971 0,0 -0.137,2.163 1.613,3.248 v 0 0 c 1.747,-1.085 1.619,-3.248 1.619,-3.248 2.553,1.084 2.888,-0.971 2.888,-0.971 -2.76,0.246 -2.888,-2.361 -2.888,-2.361 h 5.031 v -1.85 h -2.506 c 0,0 0.121,-1.502 0.858,-2.604 0.781,-1.138 2.472,-1.721 3.832,-0.761 1.452,1.029 0.979,3.034 0.979,3.034 0.292,0 1.312,-0.62 1.894,-2.44 1.092,-3.47 -2.35,-6.822 -5.823,-4.889 -2.457,1.357 -3.46,4.42 -3.46,7.66 h -1.336 c 0.034,0.244 -0.316,-2.42 0.217,-4.402 0.374,-1.383 0.858,-2.822 1.691,-4.563 0.729,-1.508 0.999,-4.06 -0.537,-5.966 -1.312,-1.656 -2.105,-2.582 -2.459,-3.229 z"
   id="path117"
   inkscape:connector-curvature="0"
   style="clip-rule:evenodd;fill:#ffffff;fill-rule:evenodd" />
		<g
   id="g123">
			<g
   id="g121">
				<rect
   x="462.03299"
   y="108.079"
   width="48.029999"
   height="29.423"
   id="rect119"
   style="clip-rule:evenodd;fill:#226cb4;fill-rule:evenodd" />
			</g>
		</g>
		<path
   d="m 486.045,109.615 c -0.357,0.646 -1.142,1.572 -2.47,3.229 -1.535,1.906 -1.261,4.458 -0.529,5.966 0.836,1.741 1.313,3.181 1.694,4.563 0.522,1.982 0.18,4.646 0.217,4.402 h -1.336 c 0,-3.24 -1.009,-6.303 -3.464,-7.66 -3.479,-1.934 -6.91,1.419 -5.818,4.889 0.571,1.82 1.595,2.44 1.888,2.44 0,0 -0.475,-2.005 0.979,-3.034 1.356,-0.96 3.047,-0.377 3.826,0.761 0.745,1.103 0.862,2.604 0.862,2.604 h -2.499 v 1.85 h 5.022 c 0,0 -0.135,2.607 -2.885,2.361 0,0 0.337,2.055 2.885,0.971 0,0 -0.135,2.163 1.628,3.248 v 0 0 c 1.738,-1.085 1.604,-3.248 1.604,-3.248 2.554,1.084 2.897,-0.971 2.897,-0.971 -2.764,0.246 -2.897,-2.361 -2.897,-2.361 h 5.038 v -1.85 h -2.517 c 0,0 0.131,-1.502 0.863,-2.604 0.787,-1.138 2.475,-1.721 3.843,-0.761 1.44,1.029 0.985,3.034 0.985,3.034 0.279,0 1.299,-0.62 1.865,-2.44 1.093,-3.47 -2.345,-6.822 -5.817,-4.889 -2.445,1.357 -3.456,4.42 -3.456,7.66 h -1.326 c 0.035,0.244 -0.32,-2.42 0.215,-4.402 0.364,-1.383 0.855,-2.822 1.687,-4.563 0.724,-1.508 0.992,-4.06 -0.538,-5.966 -1.312,-1.656 -2.111,-2.582 -2.446,-3.229 z"
   id="path125"
   inkscape:connector-curvature="0"
   style="clip-rule:evenodd;fill:#ffffff;fill-rule:evenodd" />
	</g>
</g>
<rect
   x="-1.597"
   y="16.579"
   fill-rule="evenodd"
   clip-rule="evenodd"
   fill="none"
   width="559.638"
   height="168.933"
   id="rect131" />
</svg>